<svg width="19" height="24" viewBox="0 0 19 24" fill="none" xmlns="http://www.w3.org/2000/svg">
<path d="M15.6284 2.35408C14.0566 1.28272 12.7572 1.36434 11.9368 1.61947C11.3892 1.79557 10.8867 2.08912 10.4643 2.47959C10.0659 1.83138 9.49714 1.30499 8.82008 0.957819C8.14302 0.610647 7.38365 0.456015 6.62474 0.510781C3.74249 0.600197 0.71257 2.87499 0.137103 5.37948C-0.261171 7.10588 0.260154 8.81423 1.03332 10.2429C1.54693 11.1683 2.15696 12.0368 2.85324 12.8339L5.76954 10.7457C0.329062 5.35897 5.55789 3.60304 6.77937 4.06899C8.37165 4.6785 9.24982 7.21294 9.24982 7.21294C9.24982 7.21294 11.1173 4.43322 13.2215 5.09524C14.6341 5.55011 15.203 7.13131 14.8002 8.50743C14.3974 9.88354 13.26 11.1054 12.0886 11.9266C11.7724 12.1542 11.4561 12.3634 11.1399 12.5771C10.1706 13.2083 9.24082 13.8982 8.35565 14.6427L8.18502 14.7904C7.13417 15.7001 5.73262 16.9741 5.66905 18.8851C5.65756 19.2543 6.7039 23.4482 6.7039 23.4482H7.50701L9.12677 18.8986C9.52316 18.3694 9.98733 17.8944 10.5074 17.486L10.692 17.3277C11.4703 16.6777 12.2869 16.075 13.1374 15.523L14.1337 14.8404C16.8023 12.968 18.5151 10.0632 18.4995 7.43607C18.4876 6.00704 17.9827 3.9644 15.6284 2.35408Z" fill="#DC7B2B"/>
</svg>
